<svg version="1.1" id="Layer_1" xmlns="http://www.w3.org/2000/svg" xmlns:xlink="http://www.w3.org/1999/xlink" x="0px" y="0px"
	 width="100%" viewBox="0 0 300 300" enable-background="new 0 0 300 300" xml:space="preserve">
<path fill="#000000" opacity="0.000000" stroke="none" 
	d="
M138.000000,301.000000 
	C92.000000,301.000000 46.500000,301.000000 1.000000,301.000000 
	C1.000000,201.000000 1.000000,101.000000 1.000000,1.000000 
	C101.000000,1.000000 201.000000,1.000000 301.000000,1.000000 
	C301.000000,101.000000 301.000000,201.000000 301.000000,301.000000 
	C246.833328,301.000000 192.666672,301.000000 138.000000,301.000000 
M54.897316,146.448349 
	C49.822609,155.042725 47.922222,164.062775 49.885403,174.084930 
	C53.264496,191.335419 69.121910,205.042633 85.887199,205.021210 
	C129.709244,204.965195 173.531708,204.919891 217.353409,205.057693 
	C237.464310,205.120941 254.137970,188.096756 254.893082,168.084030 
	C255.371933,155.393188 249.516296,145.171097 240.281677,136.726379 
	C239.085922,135.632919 237.917236,134.212250 237.404358,132.714310 
	C229.731735,110.305336 207.573105,96.599541 183.053574,101.759926 
	C181.164810,102.157433 177.933380,100.599251 176.702255,98.933144 
	C171.317627,91.646088 164.510559,85.761917 156.464691,82.404396 
	C143.725754,77.088463 130.367996,75.823730 117.013748,81.431389 
	C100.828850,88.227707 90.366470,99.828598 87.101761,117.182098 
	C85.994080,123.069939 84.238098,127.767090 78.036125,129.460022 
	C68.374962,132.097198 60.609039,137.353241 54.897316,146.448349 
z"/>
<path fill="#43C2E3" opacity="1.000000" stroke="none" 
	d="
M54.951683,146.078613 
	C60.609039,137.353241 68.374962,132.097198 78.036125,129.460022 
	C84.238098,127.767090 85.994080,123.069939 87.101761,117.182098 
	C90.366470,99.828598 100.828850,88.227707 117.013748,81.431389 
	C130.367996,75.823730 143.725754,77.088463 156.464691,82.404396 
	C164.510559,85.761917 171.317627,91.646088 176.702255,98.933144 
	C177.933380,100.599251 181.164810,102.157433 183.053574,101.759926 
	C207.573105,96.599541 229.731735,110.305336 237.404358,132.714310 
	C237.917236,134.212250 239.085922,135.632919 240.281677,136.726379 
	C249.516296,145.171097 255.371933,155.393188 254.893082,168.084030 
	C254.137970,188.096756 237.464310,205.120941 217.353409,205.057693 
	C173.531708,204.919891 129.709244,204.965195 85.887199,205.021210 
	C69.121910,205.042633 53.264496,191.335419 49.885403,174.084930 
	C47.922222,164.062775 49.822609,155.042725 54.951683,146.078613 
z"/>
</svg>