<svg version="1.1" id="Layer_1" xmlns="http://www.w3.org/2000/svg" xmlns:xlink="http://www.w3.org/1999/xlink" x="0px" y="0px"
	 width="100%" viewBox="0 0 300 300" enable-background="new 0 0 300 300" xml:space="preserve">
<path fill="#000000" opacity="0.000000" stroke="none" 
	d="
M135.000000,301.000000 
	C90.000000,301.000000 45.500000,301.000000 1.000000,301.000000 
	C1.000000,201.000000 1.000000,101.000000 1.000000,1.000000 
	C101.000000,1.000000 201.000000,1.000000 301.000000,1.000000 
	C301.000000,101.000000 301.000000,201.000000 301.000000,301.000000 
	C245.833328,301.000000 190.666672,301.000000 135.000000,301.000000 
M200.258865,76.998672 
	C194.631744,77.325195 188.998566,77.944435 183.380585,77.828476 
	C181.251556,77.784538 178.771484,76.475967 177.123032,74.995850 
	C172.909988,71.213005 169.600357,66.231209 164.991196,63.117920 
	C150.146790,53.091164 134.105469,51.217579 117.236679,57.879230 
	C100.135048,64.632835 90.241188,77.603165 87.366760,95.188820 
	C86.303665,101.692810 83.043625,104.434616 78.253059,105.690285 
	C64.016937,109.421761 55.383961,118.603279 51.431789,132.220398 
	C43.949181,158.001556 64.215439,181.126740 87.718254,181.057892 
	C130.713974,180.931931 173.710648,180.904861 216.706116,181.060974 
	C229.667038,181.108047 239.638748,176.006577 247.623016,165.971985 
	C258.227722,152.644028 257.956635,133.005798 247.513733,119.734711 
	C243.692581,114.878685 238.256149,111.423820 236.127838,104.839844 
	C234.500229,99.804863 230.863037,95.202293 227.372467,91.032997 
	C220.596588,82.939636 211.306122,79.034134 200.258865,76.998672 
M157.072372,235.955048 
	C160.231201,234.717331 162.219376,232.242722 161.386307,229.047119 
	C159.202469,220.670105 156.611969,212.391815 153.949310,204.149841 
	C152.551041,199.821655 148.636169,199.048630 145.096664,200.196716 
	C141.806503,201.263931 140.440735,204.041092 141.855865,208.022064 
	C144.495270,215.447021 146.792755,223.009827 148.851700,230.618301 
	C149.958221,234.707230 152.228119,236.354065 157.072372,235.955048 
M175.007156,231.846329 
	C177.495361,240.553024 179.922440,249.277847 182.498215,257.958557 
	C183.738403,262.138123 187.423584,264.359741 191.004456,262.888367 
	C194.773300,261.339783 195.875504,258.182526 194.690308,254.326660 
	C192.513412,247.244461 190.079041,240.234467 188.142395,233.088547 
	C187.284760,229.924026 185.939560,227.708893 182.690552,227.039230 
	C179.120392,226.303360 176.641861,227.866898 175.007156,231.846329 
M95.683723,200.002670 
	C91.111107,200.733749 90.205887,204.164337 91.114258,207.665924 
	C93.220970,215.786972 95.811577,223.788239 98.388763,231.779114 
	C99.702179,235.851501 103.285545,236.689865 106.776291,235.840347 
	C110.562233,234.918976 111.882790,231.545624 110.871506,228.022751 
	C108.650124,220.284454 106.152122,212.614563 103.441017,205.033356 
	C102.382690,202.073883 100.426765,199.457611 95.683723,200.002670 
M211.701782,232.780930 
	C211.781097,231.128967 212.293137,229.354843 211.867065,227.845566 
	C209.675385,220.081879 207.327682,212.358887 204.856323,204.679001 
	C203.721024,201.151047 198.868561,198.744461 195.748856,200.179337 
	C192.253479,201.787003 191.146515,204.828140 192.210251,208.452362 
	C194.397003,215.902710 196.646652,223.336945 199.027039,230.727371 
	C200.960449,236.730026 206.479630,237.868515 211.701782,232.780930 
M126.998978,229.039368 
	C126.002495,231.107681 123.781502,233.487701 124.215324,235.191925 
	C126.438393,243.925156 129.061432,252.588272 132.160767,261.050262 
	C133.307419,264.180847 136.382599,266.075653 140.227997,264.349457 
	C143.868286,262.715302 144.653122,259.756775 143.649582,256.264038 
	C141.698166,249.472336 139.362015,242.785690 137.579849,235.952606 
	C136.207809,230.692047 133.573700,227.859955 126.998978,229.039368 
z"/>
<path fill="#3591A6" opacity="1.000000" stroke="none" 
	d="
M200.703354,76.995193 
	C211.306122,79.034134 220.596588,82.939636 227.372467,91.032997 
	C230.863037,95.202293 234.500229,99.804863 236.127838,104.839844 
	C238.256149,111.423820 243.692581,114.878685 247.513733,119.734711 
	C257.956635,133.005798 258.227722,152.644028 247.623016,165.971985 
	C239.638748,176.006577 229.667038,181.108047 216.706116,181.060974 
	C173.710648,180.904861 130.713974,180.931931 87.718254,181.057892 
	C64.215439,181.126740 43.949181,158.001556 51.431789,132.220398 
	C55.383961,118.603279 64.016937,109.421761 78.253059,105.690285 
	C83.043625,104.434616 86.303665,101.692810 87.366760,95.188820 
	C90.241188,77.603165 100.135048,64.632835 117.236679,57.879230 
	C134.105469,51.217579 150.146790,53.091164 164.991196,63.117920 
	C169.600357,66.231209 172.909988,71.213005 177.123032,74.995850 
	C178.771484,76.475967 181.251556,77.784538 183.380585,77.828476 
	C188.998566,77.944435 194.631744,77.325195 200.703354,76.995193 
z"/>
<path fill="#46C3E4" opacity="1.000000" stroke="none" 
	d="
M156.666977,235.973633 
	C152.228119,236.354065 149.958221,234.707230 148.851700,230.618301 
	C146.792755,223.009827 144.495270,215.447021 141.855865,208.022064 
	C140.440735,204.041092 141.806503,201.263931 145.096664,200.196716 
	C148.636169,199.048630 152.551041,199.821655 153.949310,204.149841 
	C156.611969,212.391815 159.202469,220.670105 161.386307,229.047119 
	C162.219376,232.242722 160.231201,234.717331 156.666977,235.973633 
z"/>
<path fill="#47C3E4" opacity="1.000000" stroke="none" 
	d="
M175.023499,231.431976 
	C176.641861,227.866898 179.120392,226.303360 182.690552,227.039230 
	C185.939560,227.708893 187.284760,229.924026 188.142395,233.088547 
	C190.079041,240.234467 192.513412,247.244461 194.690308,254.326660 
	C195.875504,258.182526 194.773300,261.339783 191.004456,262.888367 
	C187.423584,264.359741 183.738403,262.138123 182.498215,257.958557 
	C179.922440,249.277847 177.495361,240.553024 175.023499,231.431976 
z"/>
<path fill="#46C3E4" opacity="1.000000" stroke="none" 
	d="
M96.097549,200.002304 
	C100.426765,199.457611 102.382690,202.073883 103.441017,205.033356 
	C106.152122,212.614563 108.650124,220.284454 110.871506,228.022751 
	C111.882790,231.545624 110.562233,234.918976 106.776291,235.840347 
	C103.285545,236.689865 99.702179,235.851501 98.388763,231.779114 
	C95.811577,223.788239 93.220970,215.786972 91.114258,207.665924 
	C90.205887,204.164337 91.111107,200.733749 96.097549,200.002304 
z"/>
<path fill="#47C3E4" opacity="1.000000" stroke="none" 
	d="
M211.400208,233.065826 
	C206.479630,237.868515 200.960449,236.730026 199.027039,230.727371 
	C196.646652,223.336945 194.397003,215.902710 192.210251,208.452362 
	C191.146515,204.828140 192.253479,201.787003 195.748856,200.179337 
	C198.868561,198.744461 203.721024,201.151047 204.856323,204.679001 
	C207.327682,212.358887 209.675385,220.081879 211.867065,227.845566 
	C212.293137,229.354843 211.781097,231.128967 211.400208,233.065826 
z"/>
<path fill="#46C3E4" opacity="1.000000" stroke="none" 
	d="
M127.426849,229.020309 
	C133.573700,227.859955 136.207809,230.692047 137.579849,235.952606 
	C139.362015,242.785690 141.698166,249.472336 143.649582,256.264038 
	C144.653122,259.756775 143.868286,262.715302 140.227997,264.349457 
	C136.382599,266.075653 133.307419,264.180847 132.160767,261.050262 
	C129.061432,252.588272 126.438393,243.925156 124.215324,235.191925 
	C123.781502,233.487701 126.002495,231.107681 127.426849,229.020309 
z"/>
</svg>