<svg version="1.1" id="Layer_1" xmlns="http://www.w3.org/2000/svg" xmlns:xlink="http://www.w3.org/1999/xlink" x="0px" y="0px"
	 width="100%" viewBox="0 0 300 300" enable-background="new 0 0 300 300" xml:space="preserve">
<path fill="#000000" opacity="0.000000" stroke="none" 
	d="
M194.000000,301.000000 
	C129.333344,301.000000 65.166687,301.000000 1.000026,301.000000 
	C1.000017,201.000031 1.000017,101.000061 1.000009,1.000066 
	C100.999947,1.000044 200.999893,1.000044 300.999878,1.000022 
	C300.999939,100.999939 300.999939,200.999878 300.999969,300.999908 
	C265.500000,301.000000 230.000000,301.000000 194.000000,301.000000 
M109.574997,230.001099 
	C153.044937,230.001694 196.516006,230.147980 239.983383,229.813904 
	C245.265945,229.773315 251.201736,228.248581 255.676254,225.515198 
	C269.972931,216.781601 277.303345,204.055099 275.044128,186.702606 
	C273.759613,176.836884 268.738556,169.159103 261.915771,162.333267 
	C260.417328,160.834106 259.125610,159.062286 258.026764,157.242111 
	C254.795837,151.890198 252.466492,145.788437 248.424362,141.170502 
	C236.525742,127.576920 221.186310,123.636620 203.607788,126.817001 
	C201.639603,127.173096 198.819290,125.773643 197.169113,124.312874 
	C193.821350,121.349396 191.272018,117.483368 187.921768,114.523399 
	C173.939331,102.169853 152.081085,99.273170 135.351288,107.359360 
	C118.747803,115.384506 109.273460,128.834869 106.816322,147.259567 
	C106.568649,149.116669 104.677094,151.131897 103.012276,152.326660 
	C100.954659,153.803329 98.402809,154.704865 95.948906,155.496689 
	C83.548889,159.497955 76.102211,167.914902 71.825020,180.168762 
	C63.600048,203.732773 83.158478,231.311066 109.574997,230.001099 
M112.088989,110.621498 
	C113.740822,109.322685 115.392662,108.023872 117.139458,106.650391 
	C104.222450,97.431564 83.292900,100.212547 74.241165,115.426147 
	C67.113876,127.405251 69.414574,146.213150 78.426079,151.394058 
	C83.377502,149.075684 87.699417,146.928345 92.126648,145.026093 
	C94.732849,143.906265 96.479256,142.812729 97.163208,139.476608 
	C99.360779,128.757446 104.586487,119.436584 112.088989,110.621498 
M125.902374,74.389198 
	C124.273735,77.180687 122.605408,79.949936 121.026001,82.769005 
	C118.804771,86.733650 120.420341,89.725029 123.780975,91.912544 
	C127.385818,94.258995 130.594330,92.767578 132.625351,89.655823 
	C135.707901,84.932976 138.220856,79.840599 141.028366,74.935287 
	C143.245193,71.061996 141.384277,68.291641 138.417862,66.149445 
	C136.025009,64.421425 130.662338,66.066750 129.026489,68.684029 
	C128.001480,70.323997 127.016724,71.989136 125.902374,74.389198 
M44.009171,156.487946 
	C41.754059,157.771561 38.998135,158.616882 37.383926,160.461365 
	C35.752331,162.325729 34.289299,165.264450 34.492641,167.579681 
	C34.763603,170.664841 37.332081,172.653046 40.965050,172.000305 
	C48.686134,170.613037 54.859203,166.152512 60.620472,161.324371 
	C61.809341,160.328049 61.585964,156.287857 60.596199,154.389648 
	C59.319138,151.940475 57.023067,149.522324 53.308895,151.866013 
	C50.609726,153.569229 47.537598,154.681412 44.009171,156.487946 
M67.002556,86.514954 
	C67.305519,86.904854 67.682838,87.257439 67.900070,87.690361 
	C70.381035,92.634644 73.729813,94.126274 77.765678,92.055893 
	C81.796616,89.988037 82.258499,87.144646 79.254364,81.724167 
	C76.990135,77.638733 74.536346,73.658829 72.229996,69.596153 
	C69.931686,65.547638 66.580566,64.117874 62.588291,66.261681 
	C58.709728,68.344429 59.382664,72.033920 60.817543,75.276947 
	C62.444977,78.955200 64.566246,82.414955 67.002556,86.514954 
M106.998375,73.420258 
	C106.999756,69.608162 107.149574,65.788635 106.959343,61.986122 
	C106.781242,58.426022 104.630600,56.064659 101.119591,56.112408 
	C97.606407,56.160191 94.185936,57.422791 94.053085,61.835007 
	C93.878586,67.630699 93.719765,73.455444 94.112038,79.229797 
	C94.384483,83.240211 97.163956,85.956223 101.226128,85.868324 
	C105.306244,85.780052 107.070206,82.855721 107.002167,78.857666 
	C106.976791,77.366409 106.998276,75.874352 106.998375,73.420258 
M34.356236,98.862106 
	C39.547028,105.787079 47.530151,108.439423 54.942142,111.743652 
	C56.251045,112.327148 59.441788,110.040756 61.005577,108.370186 
	C63.116314,106.115349 62.541435,103.292068 59.964043,101.565521 
	C54.608994,97.978302 49.325253,94.144630 43.555489,91.357826 
	C38.300541,88.819672 34.808022,91.703529 34.356236,98.862106 
M50.695312,125.226189 
	C43.329258,125.489227 35.959869,125.691383 28.601482,126.094360 
	C27.708092,126.143288 26.593754,127.095306 26.059069,127.933281 
	C23.177525,132.449432 26.036154,137.755508 31.532860,137.959137 
	C36.495796,138.142990 41.523800,138.432602 46.420723,137.835678 
	C49.343979,137.479355 53.175423,136.243927 54.619469,134.081833 
	C56.661797,131.023972 54.069935,127.948509 50.695312,125.226189 
z"/>
<path fill="#43C2E3" opacity="1.000000" stroke="none" 
	d="
M109.088585,230.001617 
	C83.158478,231.311066 63.600048,203.732773 71.825020,180.168762 
	C76.102211,167.914902 83.548889,159.497955 95.948906,155.496689 
	C98.402809,154.704865 100.954659,153.803329 103.012276,152.326660 
	C104.677094,151.131897 106.568649,149.116669 106.816322,147.259567 
	C109.273460,128.834869 118.747803,115.384506 135.351288,107.359360 
	C152.081085,99.273170 173.939331,102.169853 187.921768,114.523399 
	C191.272018,117.483368 193.821350,121.349396 197.169113,124.312874 
	C198.819290,125.773643 201.639603,127.173096 203.607788,126.817001 
	C221.186310,123.636620 236.525742,127.576920 248.424362,141.170502 
	C252.466492,145.788437 254.795837,151.890198 258.026764,157.242111 
	C259.125610,159.062286 260.417328,160.834106 261.915771,162.333267 
	C268.738556,169.159103 273.759613,176.836884 275.044128,186.702606 
	C277.303345,204.055099 269.972931,216.781601 255.676254,225.515198 
	C251.201736,228.248581 245.265945,229.773315 239.983383,229.813904 
	C196.516006,230.147980 153.044937,230.001694 109.088585,230.001617 
z"/>
<path fill="#E6C808" opacity="1.000000" stroke="none" 
	d="
M112.024094,110.980209 
	C104.586487,119.436584 99.360779,128.757446 97.163208,139.476608 
	C96.479256,142.812729 94.732849,143.906265 92.126648,145.026093 
	C87.699417,146.928345 83.377502,149.075684 78.426079,151.394058 
	C69.414574,146.213150 67.113876,127.405251 74.241165,115.426147 
	C83.292900,100.212547 104.222450,97.431564 117.139458,106.650391 
	C115.392662,108.023872 113.740822,109.322685 112.024094,110.980209 
z"/>
<path fill="#E6C80A" opacity="1.000000" stroke="none" 
	d="
M125.958138,74.016083 
	C127.016724,71.989136 128.001480,70.323997 129.026489,68.684029 
	C130.662338,66.066750 136.025009,64.421425 138.417862,66.149445 
	C141.384277,68.291641 143.245193,71.061996 141.028366,74.935287 
	C138.220856,79.840599 135.707901,84.932976 132.625351,89.655823 
	C130.594330,92.767578 127.385818,94.258995 123.780975,91.912544 
	C120.420341,89.725029 118.804771,86.733650 121.026001,82.769005 
	C122.605408,79.949936 124.273735,77.180687 125.958138,74.016083 
z"/>
<path fill="#E6C809" opacity="1.000000" stroke="none" 
	d="
M44.320465,156.272537 
	C47.537598,154.681412 50.609726,153.569229 53.308895,151.866013 
	C57.023067,149.522324 59.319138,151.940475 60.596199,154.389648 
	C61.585964,156.287857 61.809341,160.328049 60.620472,161.324371 
	C54.859203,166.152512 48.686134,170.613037 40.965050,172.000305 
	C37.332081,172.653046 34.763603,170.664841 34.492641,167.579681 
	C34.289299,165.264450 35.752331,162.325729 37.383926,160.461365 
	C38.998135,158.616882 41.754059,157.771561 44.320465,156.272537 
z"/>
<path fill="#E6C80B" opacity="1.000000" stroke="none" 
	d="
M66.737686,86.242325 
	C64.566246,82.414955 62.444977,78.955200 60.817543,75.276947 
	C59.382664,72.033920 58.709728,68.344429 62.588291,66.261681 
	C66.580566,64.117874 69.931686,65.547638 72.229996,69.596153 
	C74.536346,73.658829 76.990135,77.638733 79.254364,81.724167 
	C82.258499,87.144646 81.796616,89.988037 77.765678,92.055893 
	C73.729813,94.126274 70.381035,92.634644 67.900070,87.690361 
	C67.682838,87.257439 67.305519,86.904854 66.737686,86.242325 
z"/>
<path fill="#E6C808" opacity="1.000000" stroke="none" 
	d="
M106.998383,73.901459 
	C106.998276,75.874352 106.976791,77.366409 107.002167,78.857666 
	C107.070206,82.855721 105.306244,85.780052 101.226128,85.868324 
	C97.163956,85.956223 94.384483,83.240211 94.112038,79.229797 
	C93.719765,73.455444 93.878586,67.630699 94.053085,61.835007 
	C94.185936,57.422791 97.606407,56.160191 101.119591,56.112408 
	C104.630600,56.064659 106.781242,58.426022 106.959343,61.986122 
	C107.149574,65.788635 106.999756,69.608162 106.998383,73.901459 
z"/>
<path fill="#E6C809" opacity="1.000000" stroke="none" 
	d="
M34.202141,98.498917 
	C34.808022,91.703529 38.300541,88.819672 43.555489,91.357826 
	C49.325253,94.144630 54.608994,97.978302 59.964043,101.565521 
	C62.541435,103.292068 63.116314,106.115349 61.005577,108.370186 
	C59.441788,110.040756 56.251045,112.327148 54.942142,111.743652 
	C47.530151,108.439423 39.547028,105.787079 34.202141,98.498917 
z"/>
<path fill="#E6C706" opacity="1.000000" stroke="none" 
	d="
M50.980331,125.523865 
	C54.069935,127.948509 56.661797,131.023972 54.619469,134.081833 
	C53.175423,136.243927 49.343979,137.479355 46.420723,137.835678 
	C41.523800,138.432602 36.495796,138.142990 31.532860,137.959137 
	C26.036154,137.755508 23.177525,132.449432 26.059069,127.933281 
	C26.593754,127.095306 27.708092,126.143288 28.601482,126.094360 
	C35.959869,125.691383 43.329258,125.489227 50.980331,125.523865 
z"/>
</svg>