<svg version="1.1" id="Layer_1" xmlns="http://www.w3.org/2000/svg" xmlns:xlink="http://www.w3.org/1999/xlink" x="0px" y="0px"
	 width="100%" viewBox="0 0 300 300" enable-background="new 0 0 300 300" xml:space="preserve">
<path fill="#000000" opacity="0.000000" stroke="none" 
	d="
M145.000000,301.000000 
	C96.666672,301.000000 48.833351,301.000000 1.000019,301.000000 
	C1.000013,201.000031 1.000013,101.000053 1.000006,1.000060 
	C100.999962,1.000040 200.999924,1.000040 300.999908,1.000020 
	C300.999939,100.999939 300.999939,200.999878 300.999969,300.999908 
	C249.166672,301.000000 197.333328,301.000000 145.000000,301.000000 
M190.316498,78.998825 
	C187.998917,79.084053 185.438644,78.568115 183.416214,79.384499 
	C179.653503,80.903381 177.240448,79.140785 175.345734,76.668869 
	C162.636124,60.087452 145.959259,53.624687 125.490952,57.016720 
	C104.950882,60.420639 88.439331,77.733070 85.971687,98.088989 
	C85.445450,102.430008 83.525482,106.027222 79.014885,106.859001 
	C62.270267,109.946808 47.786415,127.587212 48.757153,146.634735 
	C49.743340,165.985596 67.259262,183.023666 85.501457,183.026779 
	C128.974350,183.034241 172.447647,183.119812 215.919952,182.955551 
	C233.621811,182.888672 245.736496,173.700027 251.920853,157.624695 
	C257.200867,143.900040 254.107224,131.027771 244.382233,119.874435 
	C241.886032,117.011589 238.501129,114.465981 237.181763,111.120956 
	C233.321808,101.334831 228.077072,92.721809 219.254990,86.842194 
	C210.841461,81.234848 201.761948,77.329712 190.316498,78.998825 
M199.376617,227.951355 
	C202.685242,229.551636 205.993851,231.151932 209.529373,232.861954 
	C208.534821,234.457825 207.375610,236.538895 206.004608,238.469589 
	C203.518707,241.970352 203.732544,245.076904 207.246750,247.641830 
	C210.579956,250.074661 213.114960,249.197006 216.042130,244.856049 
	C217.127701,243.246170 218.267441,241.672806 219.501923,239.912476 
	C221.099197,242.195374 222.439484,244.421646 224.086487,246.391464 
	C226.515900,249.297119 229.559753,249.948761 232.725113,247.639175 
	C235.614044,245.531265 235.958954,243.003128 233.636108,240.020569 
	C231.876801,237.761642 230.506104,235.200073 228.889450,232.658325 
	C231.356415,231.737167 233.566467,230.811707 235.840454,230.086823 
	C239.084824,229.052658 241.911224,227.553375 240.747009,223.551636 
	C239.598572,219.604141 236.423386,218.416183 232.598282,219.182190 
	C230.248764,219.652710 227.975677,220.504929 224.997025,221.383804 
	C224.997025,218.249374 225.245026,215.614578 224.935730,213.046906 
	C224.527588,209.658600 222.387146,207.990097 218.878036,207.975647 
	C215.224747,207.960602 213.867996,209.821747 213.986328,213.253876 
	C214.071304,215.718719 214.002869,218.188843 214.002869,221.261047 
	C211.040253,220.617325 208.589066,219.769287 206.099747,219.636597 
	C203.818970,219.515045 200.687744,219.388458 199.426956,220.700943 
	C198.230499,221.946396 198.973404,225.054871 199.376617,227.951355 
M87.617813,210.088150 
	C85.231766,209.473145 82.241310,207.640305 80.571732,208.468918 
	C75.326073,211.072327 79.418678,216.667984 77.369995,221.111115 
	C74.727196,220.452682 71.932869,219.588959 69.074883,219.089249 
	C65.900383,218.534180 63.011219,219.362045 62.132629,222.821976 
	C61.218575,226.421570 63.101471,228.807480 66.493858,230.010620 
	C68.861923,230.850479 71.257751,231.612061 73.898819,232.494690 
	C72.472267,234.667206 70.893013,236.578766 69.866035,238.751389 
	C68.306618,242.050415 67.989799,245.454437 71.536583,247.835175 
	C75.120796,250.241028 77.721573,248.241058 79.856567,245.454147 
	C81.123772,243.800003 82.088585,241.914200 83.451599,239.708084 
	C85.103363,241.946106 86.647690,243.788284 87.911842,245.806000 
	C90.208557,249.471756 93.252815,249.913574 96.585777,247.697235 
	C99.790833,245.565933 100.063553,242.909119 97.442627,239.774887 
	C95.644981,237.625214 94.408600,235.006180 92.954147,232.650131 
	C95.410431,231.702881 97.466423,230.670853 99.644264,230.124985 
	C103.098885,229.259094 105.533028,227.586761 104.848495,223.718201 
	C104.176605,219.921066 100.641159,218.180756 96.473045,219.233582 
	C94.146446,219.821274 91.841682,220.495438 89.497681,221.138702 
	C89.027992,217.448608 88.599968,214.085815 87.617813,210.088150 
M163.064056,236.356155 
	C162.353577,235.134781 161.643112,233.913406 160.895248,232.627747 
	C163.412354,231.707047 165.657837,230.843124 167.932343,230.063995 
	C171.108994,228.975830 174.001129,227.507919 172.708130,223.459198 
	C171.461823,219.556671 168.341446,218.396866 164.509811,219.223969 
	C162.163086,219.730515 159.874588,220.506744 156.993179,221.322281 
	C156.993179,218.215134 157.296387,215.545227 156.920273,212.974716 
	C156.390625,209.355103 153.991745,207.699554 150.275543,207.987854 
	C146.909531,208.249023 145.807556,210.171677 145.973602,213.315857 
	C146.103287,215.771286 145.999573,218.239044 145.999573,221.426193 
	C142.814240,220.599564 140.223785,219.855942 137.599045,219.264648 
	C134.498306,218.566162 131.638168,218.866577 130.339828,222.309555 
	C128.957657,225.974915 130.843277,228.451401 133.964874,229.889496 
	C136.388290,231.005905 139.080368,231.539124 142.008896,232.441177 
	C140.390976,234.767715 138.642929,236.754822 137.503601,239.044769 
	C135.850357,242.367645 136.156586,245.571838 139.554230,247.842117 
	C142.922028,250.092422 145.471191,248.439056 147.553665,245.826904 
	C148.953888,244.070496 149.999664,242.031525 151.462936,239.707794 
	C153.109756,241.951401 154.654419,243.802582 155.916168,245.829849 
	C158.222321,249.535172 161.303940,249.873001 164.605820,247.680542 
	C167.814636,245.549896 168.197174,242.760880 165.385788,239.783340 
	C164.624527,238.977081 164.124069,237.924591 163.064056,236.356155 
z"/>
<path fill="#43C2E3" opacity="1.000000" stroke="none" 
	d="
M190.769409,78.998512 
	C201.761948,77.329712 210.841461,81.234848 219.254990,86.842194 
	C228.077072,92.721809 233.321808,101.334831 237.181763,111.120956 
	C238.501129,114.465981 241.886032,117.011589 244.382233,119.874435 
	C254.107224,131.027771 257.200867,143.900040 251.920853,157.624695 
	C245.736496,173.700027 233.621811,182.888672 215.919952,182.955551 
	C172.447647,183.119812 128.974350,183.034241 85.501457,183.026779 
	C67.259262,183.023666 49.743340,165.985596 48.757153,146.634735 
	C47.786415,127.587212 62.270267,109.946808 79.014885,106.859001 
	C83.525482,106.027222 85.445450,102.430008 85.971687,98.088989 
	C88.439331,77.733070 104.950882,60.420639 125.490952,57.016720 
	C145.959259,53.624687 162.636124,60.087452 175.345734,76.668869 
	C177.240448,79.140785 179.653503,80.903381 183.416214,79.384499 
	C185.438644,78.568115 187.998917,79.084053 190.769409,78.998512 
z"/>
<path fill="#46C3E4" opacity="1.000000" stroke="none" 
	d="
M199.120056,227.647736 
	C198.973404,225.054871 198.230499,221.946396 199.426956,220.700943 
	C200.687744,219.388458 203.818970,219.515045 206.099747,219.636597 
	C208.589066,219.769287 211.040253,220.617325 214.002869,221.261047 
	C214.002869,218.188843 214.071304,215.718719 213.986328,213.253876 
	C213.867996,209.821747 215.224747,207.960602 218.878036,207.975647 
	C222.387146,207.990097 224.527588,209.658600 224.935730,213.046906 
	C225.245026,215.614578 224.997025,218.249374 224.997025,221.383804 
	C227.975677,220.504929 230.248764,219.652710 232.598282,219.182190 
	C236.423386,218.416183 239.598572,219.604141 240.747009,223.551636 
	C241.911224,227.553375 239.084824,229.052658 235.840454,230.086823 
	C233.566467,230.811707 231.356415,231.737167 228.889450,232.658325 
	C230.506104,235.200073 231.876801,237.761642 233.636108,240.020569 
	C235.958954,243.003128 235.614044,245.531265 232.725113,247.639175 
	C229.559753,249.948761 226.515900,249.297119 224.086487,246.391464 
	C222.439484,244.421646 221.099197,242.195374 219.501923,239.912476 
	C218.267441,241.672806 217.127701,243.246170 216.042130,244.856049 
	C213.114960,249.197006 210.579956,250.074661 207.246750,247.641830 
	C203.732544,245.076904 203.518707,241.970352 206.004608,238.469589 
	C207.375610,236.538895 208.534821,234.457825 209.529373,232.861954 
	C205.993851,231.151932 202.685242,229.551636 199.120056,227.647736 
z"/>
<path fill="#46C3E4" opacity="1.000000" stroke="none" 
	d="
M87.894875,210.405579 
	C88.599968,214.085815 89.027992,217.448608 89.497681,221.138702 
	C91.841682,220.495438 94.146446,219.821274 96.473045,219.233582 
	C100.641159,218.180756 104.176605,219.921066 104.848495,223.718201 
	C105.533028,227.586761 103.098885,229.259094 99.644264,230.124985 
	C97.466423,230.670853 95.410431,231.702881 92.954147,232.650131 
	C94.408600,235.006180 95.644981,237.625214 97.442627,239.774887 
	C100.063553,242.909119 99.790833,245.565933 96.585777,247.697235 
	C93.252815,249.913574 90.208557,249.471756 87.911842,245.806000 
	C86.647690,243.788284 85.103363,241.946106 83.451599,239.708084 
	C82.088585,241.914200 81.123772,243.800003 79.856567,245.454147 
	C77.721573,248.241058 75.120796,250.241028 71.536583,247.835175 
	C67.989799,245.454437 68.306618,242.050415 69.866035,238.751389 
	C70.893013,236.578766 72.472267,234.667206 73.898819,232.494690 
	C71.257751,231.612061 68.861923,230.850479 66.493858,230.010620 
	C63.101471,228.807480 61.218575,226.421570 62.132629,222.821976 
	C63.011219,219.362045 65.900383,218.534180 69.074883,219.089249 
	C71.932869,219.588959 74.727196,220.452682 77.369995,221.111115 
	C79.418678,216.667984 75.326073,211.072327 80.571732,208.468918 
	C82.241310,207.640305 85.231766,209.473145 87.894875,210.405579 
z"/>
<path fill="#46C3E4" opacity="1.000000" stroke="none" 
	d="
M163.283981,236.670639 
	C164.124069,237.924591 164.624527,238.977081 165.385788,239.783340 
	C168.197174,242.760880 167.814636,245.549896 164.605820,247.680542 
	C161.303940,249.873001 158.222321,249.535172 155.916168,245.829849 
	C154.654419,243.802582 153.109756,241.951401 151.462936,239.707794 
	C149.999664,242.031525 148.953888,244.070496 147.553665,245.826904 
	C145.471191,248.439056 142.922028,250.092422 139.554230,247.842117 
	C136.156586,245.571838 135.850357,242.367645 137.503601,239.044769 
	C138.642929,236.754822 140.390976,234.767715 142.008896,232.441177 
	C139.080368,231.539124 136.388290,231.005905 133.964874,229.889496 
	C130.843277,228.451401 128.957657,225.974915 130.339828,222.309555 
	C131.638168,218.866577 134.498306,218.566162 137.599045,219.264648 
	C140.223785,219.855942 142.814240,220.599564 145.999573,221.426193 
	C145.999573,218.239044 146.103287,215.771286 145.973602,213.315857 
	C145.807556,210.171677 146.909531,208.249023 150.275543,207.987854 
	C153.991745,207.699554 156.390625,209.355103 156.920273,212.974716 
	C157.296387,215.545227 156.993179,218.215134 156.993179,221.322281 
	C159.874588,220.506744 162.163086,219.730515 164.509811,219.223969 
	C168.341446,218.396866 171.461823,219.556671 172.708130,223.459198 
	C174.001129,227.507919 171.108994,228.975830 167.932343,230.063995 
	C165.657837,230.843124 163.412354,231.707047 160.895248,232.627747 
	C161.643112,233.913406 162.353577,235.134781 163.283981,236.670639 
z"/>
</svg>