<svg version="1.1" id="Layer_1" xmlns="http://www.w3.org/2000/svg" xmlns:xlink="http://www.w3.org/1999/xlink" x="0px" y="0px"
	 width="100%" viewBox="0 0 300 300" enable-background="new 0 0 300 300" xml:space="preserve">
<path fill="#000000" opacity="0.000000" stroke="none" 
	d="
M205.000000,301.000000 
	C136.666672,301.000000 68.833359,301.000000 1.000027,301.000000 
	C1.000018,201.000031 1.000018,101.000061 1.000009,1.000068 
	C100.999947,1.000045 200.999893,1.000045 300.999878,1.000023 
	C300.999939,100.999939 300.999939,200.999878 300.999969,300.999908 
	C269.166656,301.000000 237.333328,301.000000 205.000000,301.000000 
M232.365128,155.841095 
	C240.786804,155.893860 249.208694,155.993958 257.629944,155.955231 
	C259.124390,155.948380 260.616150,155.364075 262.857635,155.008041 
	C263.900330,152.652512 266.440948,149.248764 265.677185,148.157318 
	C264.033051,145.807755 260.785583,143.451553 258.021942,143.227859 
	C250.075119,142.584625 242.042099,143.052505 234.044037,142.974060 
	C230.837921,142.942627 228.449768,144.134277 228.094467,147.383499 
	C227.748520,150.546967 227.077560,154.313583 232.365128,155.841095 
M145.236542,68.708603 
	C146.742889,73.040253 150.201859,73.739632 153.988525,72.905647 
	C157.779831,72.070625 158.088882,68.931541 158.037521,65.599289 
	C157.919632,57.952015 157.873322,50.298756 158.050201,42.653763 
	C158.147202,38.461666 155.810318,35.973885 152.379257,35.148106 
	C148.865311,34.302376 146.079285,36.169708 145.016006,40.940109 
	C145.066238,49.955978 145.116455,58.971848 145.236542,68.708603 
M42.429920,155.877426 
	C51.408878,155.917633 60.388008,155.993149 69.366547,155.948837 
	C70.374397,155.943878 71.378899,155.260498 73.088882,154.990479 
	C73.874466,152.633209 75.628548,150.086121 75.212708,147.964310 
	C74.627357,144.977631 72.359520,142.799072 68.459274,142.922501 
	C60.359039,143.178833 52.244328,143.062119 44.137005,142.970779 
	C40.565018,142.930542 37.823078,144.386032 37.188358,147.788696 
	C36.533726,151.298126 38.172619,154.125885 42.429920,155.877426 
M145.017975,230.939087 
	C145.067032,239.955673 145.116089,248.972244 145.221146,258.690796 
	C147.018234,262.039459 149.300278,264.812500 153.605331,263.692078 
	C157.776062,262.606628 158.170013,259.340332 158.063675,255.569183 
	C157.848999,247.955933 157.800674,240.325089 158.079880,232.716049 
	C158.228394,228.668411 155.904327,226.032974 152.946884,225.292648 
	C149.740509,224.489975 146.367416,226.125748 145.017975,230.939087 
M200.513519,179.007935 
	C211.611435,161.143478 212.154327,142.337357 202.795609,124.126602 
	C191.573425,102.289795 172.287827,91.378532 147.975159,92.373589 
	C130.200241,93.101067 115.112663,101.190971 104.720390,116.589775 
	C97.297997,127.587921 94.195930,139.506729 94.905815,152.760132 
	C95.634422,166.363083 100.369911,178.135712 109.562576,188.004196 
	C121.220703,200.519409 135.574722,206.570648 152.909668,206.091904 
	C173.443985,205.524796 189.040283,196.790070 200.513519,179.007935 
M198.394241,82.065468 
	C202.520554,74.900139 206.629486,67.724731 210.780563,60.573769 
	C212.833145,57.037800 212.201263,51.842705 208.900818,50.630920 
	C206.063599,49.589203 202.228775,48.332489 200.063126,51.899700 
	C195.611771,59.231850 191.469269,66.755089 187.351654,74.282806 
	C186.642258,75.579720 186.178299,77.391388 186.466232,78.786713 
	C187.639297,84.471313 191.081604,85.556984 198.394241,82.065468 
M110.506599,213.987091 
	C108.255051,215.572235 105.307831,216.693420 103.882965,218.829910 
	C99.681015,225.130432 95.730339,231.663162 92.441811,238.472305 
	C91.324730,240.785324 91.510208,244.840927 92.892982,246.891464 
	C93.977058,248.499084 98.001450,249.066086 100.385063,248.550171 
	C102.215485,248.153992 103.838501,245.537750 105.006981,243.582123 
	C108.494057,237.745972 111.376221,231.525726 115.130974,225.878601 
	C118.772141,220.402313 116.929581,216.546646 110.506599,213.987091 
M228.957260,112.596054 
	C235.097244,109.045197 241.396500,105.735886 247.307877,101.838310 
	C250.127930,99.978973 253.495148,97.547386 251.017227,93.049088 
	C248.888779,89.185181 244.806839,87.887886 240.600952,90.173569 
	C233.493988,94.035851 226.487427,98.085236 219.481964,102.130951 
	C215.806091,104.253799 216.507477,108.098412 217.296219,110.979813 
	C217.759064,112.670708 220.777802,114.222717 222.905609,114.711998 
	C224.485413,115.075249 226.481277,113.628906 228.957260,112.596054 
M80.600342,198.068604 
	C81.550362,197.456451 82.512566,196.862289 83.448364,196.229111 
	C88.143524,193.052307 88.507561,187.841049 83.610924,185.459381 
	C81.359833,184.364456 77.525299,184.951660 75.074097,186.143921 
	C68.391029,189.394485 62.062466,193.373825 55.592926,197.063507 
	C51.858841,199.193115 50.899223,202.501740 52.862679,206.445709 
	C54.971279,210.681213 58.120522,210.697998 61.783569,208.662308 
	C67.856743,205.287186 73.929993,201.912186 80.600342,198.068604 
M220.056259,184.431808 
	C215.159683,188.282349 215.591415,193.865875 221.087509,197.020309 
	C227.568222,200.739883 234.153214,204.282120 240.568604,208.109726 
	C244.829803,210.652100 248.298355,210.306503 250.742416,206.622101 
	C252.765137,203.572861 251.532745,199.621811 247.529144,197.202560 
	C242.825150,194.360062 238.094254,191.525101 233.179382,189.080215 
	C229.199219,187.100296 224.929413,185.702637 220.056259,184.431808 
M71.632553,95.935776 
	C67.934830,93.926674 64.156113,92.051079 60.562214,89.870834 
	C56.986351,87.701523 54.179466,89.140358 52.663170,92.086739 
	C51.146679,95.033501 50.964638,98.778816 54.485733,100.827705 
	C62.328491,105.391365 70.372047,109.608421 78.273193,114.073906 
	C82.089867,116.230957 84.159500,113.557854 86.088898,111.250702 
	C88.157021,108.777649 87.345734,106.204140 84.866913,104.437225 
	C80.783577,101.526596 76.549606,98.827301 71.632553,95.935776 
M191.513611,231.036850 
	C194.242035,235.804230 196.878296,240.627579 199.728256,245.321152 
	C201.980316,249.030045 206.120590,250.253891 209.098862,248.363632 
	C212.322083,246.317856 213.035034,242.125519 210.751328,238.399155 
	C209.905136,237.018387 208.936493,235.713211 208.069397,234.344604 
	C204.190277,228.221954 200.516022,221.957825 196.382263,216.012863 
	C194.202530,212.878113 190.892365,214.719635 188.678711,216.080566 
	C186.553925,217.386826 184.970856,219.756149 186.908905,222.786728 
	C188.469574,225.227188 189.641632,227.916153 191.513611,231.036850 
M100.026680,73.374619 
	C102.074661,76.484917 103.605965,80.229973 106.360588,82.472145 
	C108.066833,83.860970 111.873489,83.701149 114.297104,82.901794 
	C117.002914,82.009369 118.061440,78.903564 116.599121,76.236855 
	C112.182274,68.182213 107.599274,60.209400 102.789734,52.383720 
	C100.719177,49.014679 96.921524,49.020229 94.046989,50.728138 
	C91.045494,52.511463 89.953545,55.747822 92.018097,59.244755 
	C94.651733,63.705566 97.282715,68.167946 100.026680,73.374619 
z"/>
<path fill="#E5C706" opacity="1.000000" stroke="none" 
	d="
M200.291824,179.308746 
	C189.040283,196.790070 173.443985,205.524796 152.909668,206.091904 
	C135.574722,206.570648 121.220703,200.519409 109.562576,188.004196 
	C100.369911,178.135712 95.634422,166.363083 94.905815,152.760132 
	C94.195930,139.506729 97.297997,127.587921 104.720390,116.589775 
	C115.112663,101.190971 130.200241,93.101067 147.975159,92.373589 
	C172.287827,91.378532 191.573425,102.289795 202.795609,124.126602 
	C212.154327,142.337357 211.611435,161.143478 200.291824,179.308746 
z"/>
<path fill="#E6C80B" opacity="1.000000" stroke="none" 
	d="
M198.123611,82.356628 
	C191.081604,85.556984 187.639297,84.471313 186.466232,78.786713 
	C186.178299,77.391388 186.642258,75.579720 187.351654,74.282806 
	C191.469269,66.755089 195.611771,59.231850 200.063126,51.899700 
	C202.228775,48.332489 206.063599,49.589203 208.900818,50.630920 
	C212.201263,51.842705 212.833145,57.037800 210.780563,60.573769 
	C206.629486,67.724731 202.520554,74.900139 198.123611,82.356628 
z"/>
<path fill="#E6C80A" opacity="1.000000" stroke="none" 
	d="
M110.899002,213.985809 
	C116.929581,216.546646 118.772141,220.402313 115.130974,225.878601 
	C111.376221,231.525726 108.494057,237.745972 105.006981,243.582123 
	C103.838501,245.537750 102.215485,248.153992 100.385063,248.550171 
	C98.001450,249.066086 93.977058,248.499084 92.892982,246.891464 
	C91.510208,244.840927 91.324730,240.785324 92.441811,238.472305 
	C95.730339,231.663162 99.681015,225.130432 103.882965,218.829910 
	C105.307831,216.693420 108.255051,215.572235 110.899002,213.985809 
z"/>
<path fill="#E6C80B" opacity="1.000000" stroke="none" 
	d="
M228.624542,112.792328 
	C226.481277,113.628906 224.485413,115.075249 222.905609,114.711998 
	C220.777802,114.222717 217.759064,112.670708 217.296219,110.979813 
	C216.507477,108.098412 215.806091,104.253799 219.481964,102.130951 
	C226.487427,98.085236 233.493988,94.035851 240.600952,90.173569 
	C244.806839,87.887886 248.888779,89.185181 251.017227,93.049088 
	C253.495148,97.547386 250.127930,99.978973 247.307877,101.838310 
	C241.396500,105.735886 235.097244,109.045197 228.624542,112.792328 
z"/>
<path fill="#E6C80B" opacity="1.000000" stroke="none" 
	d="
M80.301773,198.302872 
	C73.929993,201.912186 67.856743,205.287186 61.783569,208.662308 
	C58.120522,210.697998 54.971279,210.681213 52.862679,206.445709 
	C50.899223,202.501740 51.858841,199.193115 55.592926,197.063507 
	C62.062466,193.373825 68.391029,189.394485 75.074097,186.143921 
	C77.525299,184.951660 81.359833,184.364456 83.610924,185.459381 
	C88.507561,187.841049 88.143524,193.052307 83.448364,196.229111 
	C82.512566,196.862289 81.550362,197.456451 80.301773,198.302872 
z"/>
<path fill="#E6C809" opacity="1.000000" stroke="none" 
	d="
M220.422180,184.239258 
	C224.929413,185.702637 229.199219,187.100296 233.179382,189.080215 
	C238.094254,191.525101 242.825150,194.360062 247.529144,197.202560 
	C251.532745,199.621811 252.765137,203.572861 250.742416,206.622101 
	C248.298355,210.306503 244.829803,210.652100 240.568604,208.109726 
	C234.153214,204.282120 227.568222,200.739883 221.087509,197.020309 
	C215.591415,193.865875 215.159683,188.282349 220.422180,184.239258 
z"/>
<path fill="#E6C707" opacity="1.000000" stroke="none" 
	d="
M72.005844,95.987350 
	C76.549606,98.827301 80.783577,101.526596 84.866913,104.437225 
	C87.345734,106.204140 88.157021,108.777649 86.088898,111.250702 
	C84.159500,113.557854 82.089867,116.230957 78.273193,114.073906 
	C70.372047,109.608421 62.328491,105.391365 54.485733,100.827705 
	C50.964638,98.778816 51.146679,95.033501 52.663170,92.086739 
	C54.179466,89.140358 56.986351,87.701523 60.562214,89.870834 
	C64.156113,92.051079 67.934830,93.926674 72.005844,95.987350 
z"/>
<path fill="#E6C80A" opacity="1.000000" stroke="none" 
	d="
M191.249847,230.765854 
	C189.641632,227.916153 188.469574,225.227188 186.908905,222.786728 
	C184.970856,219.756149 186.553925,217.386826 188.678711,216.080566 
	C190.892365,214.719635 194.202530,212.878113 196.382263,216.012863 
	C200.516022,221.957825 204.190277,228.221954 208.069397,234.344604 
	C208.936493,235.713211 209.905136,237.018387 210.751328,238.399155 
	C213.035034,242.125519 212.322083,246.317856 209.098862,248.363632 
	C206.120590,250.253891 201.980316,249.030045 199.728256,245.321152 
	C196.878296,240.627579 194.242035,235.804230 191.249847,230.765854 
z"/>
<path fill="#E6C80A" opacity="1.000000" stroke="none" 
	d="
M99.970757,73.002136 
	C97.282715,68.167946 94.651733,63.705566 92.018097,59.244755 
	C89.953545,55.747822 91.045494,52.511463 94.046989,50.728138 
	C96.921524,49.020229 100.719177,49.014679 102.789734,52.383720 
	C107.599274,60.209400 112.182274,68.182213 116.599121,76.236855 
	C118.061440,78.903564 117.002914,82.009369 114.297104,82.901794 
	C111.873489,83.701149 108.066833,83.860970 106.360588,82.472145 
	C103.605965,80.229973 102.074661,76.484917 99.970757,73.002136 
z"/>
<path fill="#E6C707" opacity="1.000000" stroke="none" 
	d="
M145.166306,230.012512 
	C146.367416,226.125748 149.740509,224.489975 152.946884,225.292648 
	C155.904327,226.032974 158.228394,228.668411 158.079880,232.716049 
	C157.800674,240.325089 157.848999,247.955933 158.063675,255.569183 
	C158.170013,259.340332 157.776062,262.606628 153.605331,263.692078 
	C149.300278,264.812500 147.018234,262.039459 145.456589,258.017578 
	C145.516785,248.233719 145.341537,239.123123 145.166306,230.012512 
z"/>
<path fill="#E6C707" opacity="1.000000" stroke="none" 
	d="
M41.979092,155.137878 
	C38.172619,154.125885 36.533726,151.298126 37.188358,147.788696 
	C37.823078,144.386032 40.565018,142.930542 44.137005,142.970779 
	C52.244328,143.062119 60.359039,143.178833 68.459274,142.922501 
	C72.359520,142.799072 74.627357,144.977631 75.212708,147.964310 
	C75.628548,150.086121 73.874466,152.633209 72.235443,154.960693 
	C61.581028,154.999908 51.780060,155.068893 41.979092,155.137878 
z"/>
<path fill="#E6C707" opacity="1.000000" stroke="none" 
	d="
M145.165070,40.013885 
	C146.079285,36.169708 148.865311,34.302376 152.379257,35.148106 
	C155.810318,35.973885 158.147202,38.461666 158.050201,42.653763 
	C157.873322,50.298756 157.919632,57.952015 158.037521,65.599289 
	C158.088882,68.931541 157.779831,72.070625 153.988525,72.905647 
	C150.201859,73.739632 146.742889,73.040253 145.463608,68.025078 
	C145.515472,58.232330 145.340271,49.123108 145.165070,40.013885 
z"/>
<path fill="#E6C707" opacity="1.000000" stroke="none" 
	d="
M231.926849,155.081070 
	C227.077560,154.313583 227.748520,150.546967 228.094467,147.383499 
	C228.449768,144.134277 230.837921,142.942627 234.044037,142.974060 
	C242.042099,143.052505 250.075119,142.584625 258.021942,143.227859 
	C260.785583,143.451553 264.033051,145.807755 265.677185,148.157318 
	C266.440948,149.248764 263.900330,152.652512 262.008789,154.998749 
	C251.415558,155.020004 241.671204,155.050537 231.926849,155.081070 
z"/>
<path fill="#F9F1C1" opacity="1.000000" stroke="none" 
	d="
M232.145996,155.461090 
	C241.671204,155.050537 251.415558,155.020004 261.634521,155.017944 
	C260.616150,155.364075 259.124390,155.948380 257.629944,155.955231 
	C249.208694,155.993958 240.786804,155.893860 232.145996,155.461090 
z"/>
<path fill="#F9F1C1" opacity="1.000000" stroke="none" 
	d="
M42.204506,155.507660 
	C51.780060,155.068893 61.581028,154.999908 71.883476,154.911331 
	C71.378899,155.260498 70.374397,155.943878 69.366547,155.948837 
	C60.388008,155.993149 51.408878,155.917633 42.204506,155.507660 
z"/>
<path fill="#F2E282" opacity="1.000000" stroke="none" 
	d="
M145.090546,40.476997 
	C145.340271,49.123108 145.515472,58.232330 145.428680,67.664635 
	C145.116455,58.971848 145.066238,49.955978 145.090546,40.476997 
z"/>
<path fill="#F2E282" opacity="1.000000" stroke="none" 
	d="
M145.092133,230.475800 
	C145.341537,239.123123 145.516785,248.233719 145.428589,257.666565 
	C145.116089,248.972244 145.067032,239.955673 145.092133,230.475800 
z"/>
</svg>